<?xml version="1.0" encoding="UTF-8"?>
<svg id="_Слой_1" data-name="Слой_1" xmlns="http://www.w3.org/2000/svg" viewBox="0 0 32 32">
  <defs>
    <style>
      .cls-1 {
        fill: #491000;
      }

      .cls-2 {
        fill: #e1caa6;
      }
    </style>
  </defs>
  <rect class="cls-1" width="32" height="32" rx="2" ry="2"/>
  <path class="cls-2" d="M12.85,13.5c0,.93.05,1.77-.24,2.66-.42,1.29-1.21,2.42-2.33,3.21.43-.31.95-.53,1.41-.8-2.31,1.36-.33.17.45.03.49-.09,1-.06,1.49.01,1.41.2,2.68.89,4.11.99.55.04.83-.07,1.31-.34.35-.2.74-.38,1.07-.62.13-.09.17-.1.14-.25-.03-.12-.23-.24-.3-.33-.07-.1-.14-.21-.18-.34-.07-.23-.05-.46.05-.68.12-.27.36-.51.61-.67.1-.06-.14.07-.09.04-.17.08-.33.19-.49.28-.34.19-.68.38-1.01.59-.31.19-.61.48-.71.84-.1.31,0,.62.19.88.08.11.45.35.27.51l.24-.14-.04.02c.47-.27.94-.54,1.41-.8-.69.27-1.72-.05-2.39-.24-.99-.28-1.92-.67-2.95-.75-1.61-.12-2.98.83-4.31,1.61l1.41-.8c1.11-.79,1.9-1.92,2.33-3.21.29-.89.24-1.73.24-2.66,0,.07-.74.42-.83.47-.1.06-.82.37-.82.48h0Z"/>
  <path class="cls-2" d="M12.7,3.5c-.31-.05-.49.09-.76.24-.39.22-.92.43-1.26.74-.15.14-.33.64-.16.84.04.05.19.02.27.03.16.02.3.09.44.17.09.06.26.27.35.29.09.02.32-.12.41-.15.22-.08.45-.2.68-.25.23-.05.18-.1.18.17v6.87c0-.07.74-.42.83-.47.1-.06.82-.37.82-.48v-6.82s.02-.27,0-.28c0,0-.06.03-.07.03-.1-.03-.43.16-.52.19-.18.06-.55.28-.72.22-.18-.07-.32-.29-.51-.37-.13-.05-.45-.04-.51-.1-.15-.18-.01-.72.16-.83-.54.31-1.08.62-1.61.93.12-.04.22-.04.35-.02.17.03.68-.38.83-.47.19-.11.39-.22.58-.34.04-.02.2-.15.24-.14h0Z"/>
  <path class="cls-2" d="M10.37,14.7c-.06.95-.04,1.91-.36,2.82-.45,1.27-1.35,2.29-2.39,3.12.49-.39,1.15-.56,1.64-.95,1.04-.83,1.94-1.85,2.39-3.12.32-.91.31-1.87.36-2.82,0,.08-.73.41-.83.47-.1.06-.81.36-.82.48Z"/>
  <path class="cls-2" d="M8.04,6.85c.28.02.5.13.72.31.06.04.25.29.32.31.19.03.6-.22.78-.28.09-.03.34-.19.43-.16.11.03.03-.04.07.11.07.28,0,.67,0,.96v5.49c0-.07.74-.42.83-.47.1-.06.82-.37.82-.48v-5.49c0-.29.06-.67,0-.96-.03-.16.04-.08-.07-.11-.09-.02-.34.13-.43.16-.17.06-.6.33-.78.29-.08-.02-.21-.22-.28-.28-.23-.19-.47-.32-.77-.34-.19-.01-.66.37-.83.47-.19.11-.39.22-.58.34-.05.03-.19.15-.24.14h0Z"/>
  <path class="cls-2" d="M16.83,15.54c.37-.26.89-.52,1.12-.92.21-.37.14-.88.15-1.29,0-.4.02-.81.03-1.21,0-.38-.15-1.22.19-1.45-.55.32-1.09.63-1.64.95.64-.13,1.39-.02,2.04-.02h2.79c.24,0,.5-.05.56.26.04.19,0,.43,0,.62v5.19c0-.07.74-.42.83-.47.1-.06.82-.37.82-.48v-5.22c0-.31.11-.78-.28-.85-.41-.08-.92,0-1.34,0h-2.26c-.45,0-.94-.06-1.39,0-.42.06-.83.41-1.18.62-.19.11-.54.24-.69.42-.12.15-.08.35-.08.52,0,.79-.03,1.58-.04,2.36,0,.35.02.75-.18,1.06-.25.37-.73.62-1.08.87.51-.36,1.13-.58,1.64-.95h0Z"/>
  <path class="cls-2" d="M18.28,21.92c.47-.24.92-.52,1.38-.78.27-.16.48-.28.6-.58.08-.2.04-.45.11-.64.05-.12.2-.21.31-.3l-1.64.95c.88.42,2.09.81,3.03.41.58-.25,1.07-.7,1.64-.95-.94.41-2.15,0-3.03-.41-.1-.05-.72.41-.83.47-.26.15-.58.28-.82.48-.18.15-.27.2-.31.41-.07.35-.08.68-.39.92.54-.31,1.08-.62,1.61-.93l-.09.04c-.35.17-.68.38-1.01.58-.16.09-.33.19-.49.29-.01,0-.16.09-.08.05h0Z"/>
  <path class="cls-2" d="M22.07,18.92v9.63c0-.07.74-.42.83-.47.1-.06.82-.37.82-.48v-9.63c0,.07-.74.42-.83.47-.1.06-.82.37-.82.48Z"/>
  <path class="cls-2" d="M20.12,28.06c-.09.14-.26.18-.35.3l.82-.47c-.37-.34-.66-.73-.89-1.18-.2-.4-.47-.9-.39-1.36.13-.77.45-1.35,1-1.9l-.82.47c.65.4,1.18,1.32,1.32,2.07.14.75-.38,1.43-.69,2.07.11-.23.71-.24.82-.47.31-.64.82-1.32.69-2.07-.13-.74-.67-1.67-1.32-2.07-.06-.04-.75.41-.82.47-.55.55-.86,1.13-1,1.9-.08.44.17.9.35,1.28.23.47.53.9.92,1.25.03.02.77-.41.82-.47.1-.12.26-.16.35-.3-.16.23-.66.24-.82.47Z"/>
  <path class="cls-2" d="M19.19,5.58c.9.07.84.92.84,1.57v1.04c0,.1-.04.29,0,.38.06.13.04.09.26.07.1,0,.81-.39.82-.47.04-.24.38-.41.56-.55-.25.19-.57.28-.82.47-.19.15-.51.3-.56.55l.82-.47c-.36.03-.26-.08-.26-.4v-1.08c0-.65.06-1.5-.84-1.57-.26-.02-.56.49-.82.47h0Z"/>
  <path class="cls-2" d="M19.44,4.19l.67.38s.13-.07.12-.07c.1-.05.19-.11.29-.17s.19-.11.29-.17c.01,0,.11-.08.12-.07l-.67-.38s-.13.07-.12.07c-.1.05-.19.11-.29.17-.1.06-.19.11-.29.17-.01,0-.11.08-.12.07Z"/>
  <path class="cls-2" d="M14.75,22.82l.09-.07-.82.47c.46-.18.89.48.95.87.02.16.01.32.01.48,0,.72,0,1.43.01,2.15,0,.43-.05.91.01,1.34.06.43.4.16.64.02.39-.22.77-.45,1.15-.7-.19.12-.55.3-.79.45-.14.09-.29.18-.43.28.61-.31.76-.41.47-.3h-.08c-.12-.1-.13-.19-.14-.38,0-.13,0-.26,0-.4,0-.7,0-1.4-.01-2.1,0-.46.07-1-.04-1.45-.1-.37-.51-.9-.93-.74-.3.11-.64.34-.9.54.24-.2.58-.28.82-.47h0Z"/>
  <path class="cls-2" d="M16.15,22.81c.03-.21.03-.54.23-.67l-.77.44c.66-.18,1.08.5,1.75.46.2-.01.37-.15.54-.25.08-.04.44-.18.44-.29,0,.16-.82.31-.82.47,0,.03,0,.04-.03.05.27-.16.55-.32.82-.47-.7.15-1.23-.71-1.89-.44-.25.1-.52.28-.75.43-.28.18-.3.42-.34.74,0-.05.36-.2.41-.23.06-.03.4-.17.41-.24h0Z"/>
  <path class="cls-2" d="M13.08,28.08c-.09.12-.23.17-.33.28l.82-.47c-.33-.3-.6-.66-.81-1.06-.19-.38-.45-.85-.39-1.28.1-.72.43-1.29.93-1.8l-.82.47c.6.37,1.06,1.19,1.21,1.88.16.72-.33,1.37-.63,1.98.11-.23.71-.24.82-.47.29-.61.79-1.27.63-1.98-.16-.71-.61-1.5-1.21-1.88-.06-.04-.75.41-.82.47-.51.51-.83,1.08-.93,1.8-.06.41.17.85.35,1.21.21.43.49.81.84,1.13.03.03.77-.41.82-.47.1-.11.23-.15.33-.28-.17.23-.65.24-.82.47h0Z"/>
  <path class="cls-2" d="M10.84,23.75c0-.93,0-1.87,0-2.8,0-.22.12-.76-.16-.73-.21.02-.68.37-.85.5.14-.1,1.04-.61.59-.4-.12.06-.55.32-.67.38-.27.11-.54.21-.82.3-.3.1-.53.38-.82.47.93-.3,1.77-.75,2.59-1.26-.27.15-.6.35-.87.51.26,0,.19,1.46.19,1.67,0,.61,0,1.22,0,1.84,0-.15.82-.31.82-.47h0Z"/>
  <path class="cls-2" d="M10.02,25.34c.05.8.03,1.6.04,2.4,0,.34-.04.71.41.5.48-.23.94-.54,1.39-.83-.19.12-.55.3-.79.45-.13.08-.81.51-.15.12.61-.36.21-.07.07-.13-.14-.06-.1-.29-.1-.42,0-.23,0-.47,0-.7,0-.62,0-1.24-.03-1.86,0,.13-.83.33-.82.47h0Z"/>
  <path class="cls-2" d="M22.02,8.68v1.22l.82-.47c-.16-.21-.88-.28-1.13-.24-.24.03-1.12.45-1.29.24-.04-.05-.79.51-.82.47.18.21,1.06-.21,1.29-.24.26-.04.97.03,1.13.24,0-.01.82-.41.82-.47v-1.22c0,.15-.82.31-.82.47Z"/>
  <path class="cls-2" d="M24.36,3.54c-.26.12-.47,0-.68-.15-.04-.03-.76.41-.82.47-.28.28-.81.65-.83,1.06-.02.33,0,.66,0,.98v1.86c0-.15.82-.31.82-.47,0-.62,0-1.24,0-1.86,0-.32-.01-.64,0-.96.02-.43.55-.78.83-1.08l-.82.47c.22.16.42.27.68.15.29-.13.53-.35.82-.47Z"/>
  <path class="cls-2" d="M21.13,5.99c.56-.02,1.12-.03,1.68-.03.11,0,.32-.18.41-.23.09-.05.3-.24.41-.24-.56,0-1.12,0-1.68.03-.11,0-.32.18-.41.23s-.29.24-.41.24Z"/>
  <path class="cls-2" d="M16.95,24.31l.09-.07-.82.47c.59-.23.95.7.96,1.14.01.54,0,1.07.01,1.61,0,.26-.11.93.27.84.23-.05.48-.25.68-.37.29-.17.57-.35.85-.53-.19.12-.55.3-.79.45-.12.08-.24.15-.36.24-.16.11-.09.07.21-.12.3-.15.38-.2.23-.15-.15-.04-.17.07-.25-.12-.05-.11-.02-.29-.02-.41,0-.52,0-1.05-.01-1.57,0-.49,0-.91-.39-1.28-.26-.25-.44-.27-.74-.11-.25.14-.53.27-.75.46.24-.2.58-.28.82-.47h0Z"/>
  <path class="cls-2" d="M16.86,5.55l.02-.03-.82.47c.4.11.46.52.46.86v3.57c0-.15.82-.31.82-.47v-3.55c0-.35-.05-.77-.46-.89-.09-.03-.77.39-.82.47l-.02.03c.16-.23.66-.24.82-.47h0Z"/>
  <path class="cls-2" d="M17.29,5.83c1.02.08.84,1.18.84,1.89v1.3c0,.12-.04.31,0,.42.05.15.03.1.26.08.1,0,.81-.39.82-.47.04-.24.38-.41.56-.55-.25.19-.57.28-.82.47-.19.15-.51.3-.56.55l.82-.47c-.24.02-.21.06-.26-.08-.04-.1,0-.3,0-.42v-1.3c0-.71.18-1.81-.84-1.89-.26-.02-.56.49-.82.47Z"/>
</svg>